<svg width="25" height="25" viewBox="0 0 25 25" fill="none" xmlns="http://www.w3.org/2000/svg">
  <path fill-rule="evenodd" clip-rule="evenodd" d="M13.7792 0.438951C13.4135 0.154461 12.9634 0 12.5 0C12.0367 0 11.5866 0.154461 11.2209 0.438951L0.487534 8.23062C-0.295806 8.84205 0.135444 10.0972 1.12815 10.0972H2.16669V20.4306C2.16669 21.1094 2.44036 21.7604 2.92689 22.2469C3.41342 22.7334 4.06449 23.0071 4.74303 23.0071H10.4584V14.2222C10.4584 13.8879 10.5908 13.5673 10.8261 13.332C11.0614 13.0967 11.382 12.9643 11.7163 12.9643C12.0506 12.9643 12.3712 13.0967 12.6065 13.332C12.8418 13.5673 12.9742 13.8879 12.9742 14.2222V23.0071H18.6896C19.3681 23.0071 20.0192 22.7334 20.5057 22.2469C20.9922 21.7604 21.2659 21.1094 21.2659 20.4306V10.0972H22.3044C23.2961 10.0972 23.7294 8.84205 22.945 8.23166L13.7792 0.438951Z" fill="#393939"/>
</svg>