<svg width="23" height="23" viewBox="0 0 23 23" fill="none" xmlns="http://www.w3.org/2000/svg">
<path fill-rule="evenodd" clip-rule="evenodd" d="M0 2.5C0 1.83696 0.263392 1.20107 0.732233 0.732233C1.20107 0.263392 1.83696 0 2.5 0H20C20.663 0 21.2989 0.263392 21.7678 0.732233C22.2366 1.20107 22.5 1.83696 22.5 2.5V20C22.5 20.663 22.2366 21.2989 21.7678 21.7678C21.2989 22.2366 20.663 22.5 20 22.5H2.5C1.83696 22.5 1.20107 22.2366 0.732233 21.7678C0.263392 21.2989 0 20.663 0 20V2.5ZM20 2.5H2.5V20H20V2.5ZM11.25 5C11.5815 5 11.8995 5.1317 12.1339 5.36612C12.3683 5.60054 12.5 5.91848 12.5 6.25V10H16.25C16.5815 10 16.8995 10.1317 17.1339 10.3661C17.3683 10.6005 17.5 10.9185 17.5 11.25C17.5 11.5815 17.3683 11.8995 17.1339 12.1339C16.8995 12.3683 16.5815 12.5 16.25 12.5H12.5V16.25C12.5 16.5815 12.3683 16.8995 12.1339 17.1339C11.8995 17.3683 11.5815 17.5 11.25 17.5C10.9185 17.5 10.6005 17.3683 10.3661 17.1339C10.1317 16.8995 10 16.5815 10 16.25V12.5H6.25C5.91848 12.5 5.60054 12.3683 5.36612 12.1339C5.1317 11.8995 5 11.5815 5 11.25C5 10.9185 5.1317 10.6005 5.36612 10.3661C5.60054 10.1317 5.91848 10 6.25 10H10V6.25C10 5.91848 10.1317 5.60054 10.3661 5.36612C10.6005 5.1317 10.9185 5 11.25 5Z" fill="#393939"/>
</svg>
