<svg width="25" height="25" viewBox="0 0 25 25" fill="none" xmlns="http://www.w3.org/2000/svg">
<g clip-path="url(#clip0_207_737)">
<path fill-rule="evenodd" clip-rule="evenodd" d="M14.1026 3.15469C13.7515 2.88159 13.3194 2.73331 12.8746 2.73331C12.4298 2.73331 11.9976 2.88159 11.6466 3.15469L3.26255 9.6747C2.51055 10.2617 2.92455 11.4667 3.87755 11.4667H4.87455V19.4667C4.87455 19.9971 5.08527 20.5058 5.46034 20.8809C5.83541 21.256 6.34412 21.4667 6.87455 21.4667H18.8746C19.405 21.4667 19.9137 21.256 20.2888 20.8809C20.6638 20.5058 20.8746 19.9971 20.8746 19.4667V11.4667H21.8716C22.8236 11.4667 23.2396 10.2617 22.4866 9.67569L14.1026 3.15469ZM13.8746 19.4667V13.4667C13.8746 13.2015 13.7692 12.9471 13.5817 12.7596C13.3941 12.5721 13.1398 12.4667 12.8746 12.4667C12.6093 12.4667 12.355 12.5721 12.1674 12.7596C11.9799 12.9471 11.8746 13.2015 11.8746 13.4667V19.4667H6.87455V10.4767C6.87455 10.1597 6.72855 9.8767 6.49955 9.6917L12.8746 4.7337L19.2496 9.6917C19.1324 9.78623 19.0379 9.90582 18.973 10.0417C18.9081 10.1775 18.8745 10.3261 18.8746 10.4767V19.4667H13.8746Z" fill="#09244B"/>
</g>
<defs>
<clipPath id="clip0_207_737">
<rect width="24" height="24" fill="white" transform="translate(0.874573 0.466705)"/>
</clipPath>
</defs>
</svg>
