<svg width="31" height="30" viewBox="0 0 31 30" fill="none" xmlns="http://www.w3.org/2000/svg">
<path fill-rule="evenodd" clip-rule="evenodd" d="M6.74999 12.5C6.74999 10.8424 7.40847 9.25269 8.58057 8.08058C9.75267 6.90848 11.3424 6.25 13 6.25C14.6576 6.25 16.2473 6.90848 17.4194 8.08058C18.5915 9.25269 19.25 10.8424 19.25 12.5C19.25 14.1576 18.5915 15.7473 17.4194 16.9194C16.2473 18.0915 14.6576 18.75 13 18.75C11.3424 18.75 9.75267 18.0915 8.58057 16.9194C7.40847 15.7473 6.74999 14.1576 6.74999 12.5ZM13 3.75C11.6141 3.75 10.248 4.07922 9.01418 4.71054C7.78039 5.34186 6.71422 6.25723 5.90345 7.38126C5.09269 8.50529 4.56053 9.80583 4.35078 11.1758C4.14104 12.5458 4.25972 13.9459 4.69705 15.2611C5.13438 16.5762 5.87785 17.7686 6.86623 18.7401C7.85461 19.7117 9.05964 20.4345 10.3821 20.8492C11.7045 21.2638 13.1065 21.3584 14.4727 21.1252C15.8389 20.8919 17.1301 20.3375 18.24 19.5075L24.615 25.8838C24.8494 26.1183 25.1673 26.2501 25.4989 26.2503C25.8305 26.2504 26.1486 26.1188 26.3831 25.8844C26.6177 25.65 26.7495 25.332 26.7496 25.0004C26.7497 24.6689 26.6181 24.3508 26.3837 24.1162L20.0087 17.7412C20.9817 16.4406 21.5734 14.8949 21.7176 13.2771C21.8619 11.6593 21.553 10.0332 20.8255 8.58101C20.098 7.12879 18.9807 5.90772 17.5986 5.0545C16.2165 4.20128 14.6242 3.74959 13 3.75Z" fill="#393939"/>
</svg>
