<svg width="25" height="25" viewBox="0 0 25 25" fill="none" xmlns="http://www.w3.org/2000/svg">
  <g clip-path="url(#clip0_207_741)">
    <path d="M16.5417 14.5833C17.9177 14.5834 19.2386 15.1016 20.2272 16.0384C21.2159 16.9752 21.8116 18.2456 21.8706 19.621L21.8758 19.8542V20.9167C21.8761 21.4517 21.6733 21.9673 21.3109 22.3588C20.9485 22.7504 20.4471 22.9886 19.9146 23.0281L19.7554 23.0333H5.24554C4.71056 23.0336 4.19482 22.8308 3.80328 22.4684C3.41174 22.106 3.17353 21.6046 3.13408 21.0721L3.12887 20.9167V19.8542C3.12895 18.4782 3.64702 17.1573 4.58382 16.1686C5.52062 15.18 6.79104 14.5842 8.16637 14.5252L8.39554 14.5208H16.5417ZM12.4167 2.08334C13.8221 2.08334 15.1696 2.63289 16.1807 3.61159C17.1918 4.59029 17.7815 5.91824 17.8228 7.32293L17.8271 7.54168C17.8271 8.94704 17.2775 10.2945 16.2988 11.3056C15.3201 12.3167 13.9922 12.9064 12.5875 12.9477L12.3688 12.9521C10.9634 12.9521 9.61587 12.4025 8.60479 11.4238C7.59371 10.4451 7.00403 9.11714 6.96272 7.71246L6.95833 7.49376C6.95833 6.0884 7.50789 4.74095 8.48659 3.72986C9.46529 2.71878 10.7932 2.12911 12.1979 2.08779L12.4167 2.08334Z" fill="#393939"/>
  </g>
  <defs>
    <clipPath id="clip0_207_741">
      <rect width="25" height="25" fill="white"/>
    </clipPath>
  </defs>
</svg>
