<svg width="25" height="25" viewBox="0 0 25 25" fill="none" xmlns="http://www.w3.org/2000/svg">
  <path fill-rule="evenodd" clip-rule="evenodd" d="M14.6902 3.28614C14.3245 3.00005 13.8744 2.84427 13.4089 2.84427C12.9435 2.84427 12.4934 3.00005 12.1277 3.28614L3.39848 10.0987C2.61514 10.7351 3.04639 12.0174 4.0401 12.0174H5.0781V20.2601C5.0781 20.826 5.29967 21.369 5.69678 21.7661C6.09388 22.1632 6.63698 22.3848 7.20302 22.3848H19.6148C20.1808 22.3848 20.7239 22.1632 21.121 21.7661C21.5181 21.369 21.7397 20.826 21.7397 20.2601V12.0174H22.7777C23.7703 12.0174 24.2036 10.7351 23.4192 10.0997L14.6902 3.28614ZM14.4531 20.2601V14.0732C14.4531 13.7976 14.3435 13.5333 14.1483 13.3381C13.9531 13.1429 13.6888 13.0333 13.4132 13.0333C13.1376 13.0333 12.8733 13.1429 12.6781 13.3381C12.4829 13.5333 12.3733 13.7976 12.3733 14.0732V20.2601H7.15794V10.9984C7.15794 10.6699 7.00567 10.3763 6.76784 10.1844L13.4089 5.05698L20.0499 10.1844C19.9279 10.2834 19.8293 10.4087 19.7615 10.5517C19.6937 10.6947 19.6586 10.8516 19.6589 11.0109V20.2601H14.4531Z" fill="#09244B"/>
</svg>