<svg width="25" height="25" viewBox="0 0 25 25" fill="none" xmlns="http://www.w3.org/2000/svg">
  <path fill-rule="evenodd" clip-rule="evenodd" d="M6.25 11.5C6.25 9.84239 6.90848 8.25268 8.08058 7.08058C9.25268 5.90848 10.8424 5.25 12.5 5.25C14.1576 5.25 15.7473 5.90848 16.9194 7.08058C18.0915 8.25268 18.75 9.84239 18.75 11.5C18.75 13.1576 18.0915 14.7473 16.9194 15.9194C15.7473 17.0915 14.1576 17.75 12.5 17.75C10.8424 17.75 9.25268 17.0915 8.08058 15.9194C6.90848 14.7473 6.25 13.1576 6.25 11.5ZM12.5 2.75C11.1141 2.75 9.74801 3.07922 8.51418 3.71054C7.28039 4.34186 6.21422 5.25723 5.40345 6.38126C4.59269 7.50529 4.06053 8.80583 3.85078 10.1758C3.64104 11.5458 3.75972 12.9459 4.19705 14.2611C4.63438 15.5762 5.37785 16.7686 6.36623 17.7401C7.35461 18.7117 8.55964 19.4345 9.88206 19.8492C11.2045 20.2638 12.6065 20.3584 13.9727 20.1252C15.3389 19.8919 16.6301 19.3375 17.74 18.5075L22.8674 23.6361C23.1018 23.8706 23.4197 24.0024 23.7513 24.0026C24.0829 24.0027 24.401 23.8711 24.6355 23.6367C24.8701 23.4023 25.0019 23.0843 25.002 22.7527C25.0021 22.4211 24.8705 22.1031 24.6361 21.8685L19.5087 16.7412C20.4817 15.4406 21.0734 13.8949 21.2176 12.2771C21.3619 10.6593 21.053 9.03319 20.3255 7.58101C19.598 6.12879 18.4807 4.90772 17.0986 4.0545C15.7165 3.20128 14.1242 2.74959 12.5 2.75Z" fill="#393939"/>
</svg>