<svg width="25" height="25" viewBox="0 0 25 25" fill="none" xmlns="http://www.w3.org/2000/svg">
  <path fill-rule="evenodd" clip-rule="evenodd" d="M0 2.77778C0 2.04107 0.292658 1.33452 0.813592 0.813592C1.33452 0.292658 2.04107 0 2.77778 0H22.2222C22.9589 0 23.6655 0.292658 24.1864 0.813592C24.7073 1.33452 25 2.04107 25 2.77778V22.2222C25 22.9589 24.7073 23.6655 24.1864 24.1864C23.6655 24.7073 22.9589 25 22.2222 25H2.77778C2.04107 25 1.33452 24.7073 0.813592 24.1864C0.292658 23.6655 0 22.9589 0 22.2222V2.77778ZM22.2222 2.77778H2.77778V22.2222H22.2222V2.77778ZM12.5 5.55556C12.8683 5.55556 13.2216 5.70189 13.4821 5.96236C13.7426 6.22282 13.8889 6.57609 13.8889 6.94444V11.1111H18.0556C18.4239 11.1111 18.7772 11.2574 19.0376 11.5179C19.2981 11.7784 19.4444 12.1317 19.4444 12.5C19.4444 12.8683 19.2981 13.2216 19.0376 13.4821C18.7772 13.7426 18.4239 13.8889 18.0556 13.8889H13.8889V18.0556C13.8889 18.4239 13.7426 18.7772 13.4821 19.0376C13.2216 19.2981 12.8683 19.4444 12.5 19.4444C12.1317 19.4444 11.7784 19.2981 11.5179 19.0376C11.2574 18.7772 11.1111 18.4239 11.1111 18.0556V13.8889H6.94444C6.57609 13.8889 6.22282 13.7426 5.96236 13.4821C5.70189 13.2216 5.55556 12.8683 5.55556 12.5C5.55556 12.1317 5.70189 11.7784 5.96236 11.5179C6.22282 11.2574 6.57609 11.1111 6.94444 11.1111H11.1111V6.94444C11.1111 6.57609 11.2574 6.22282 11.5179 5.96236C11.7784 5.70189 12.1317 5.55556 12.5 5.55556Z" fill="#393939"/>
</svg>