<svg width="25" height="25" viewBox="0 0 25 25" fill="none" xmlns="http://www.w3.org/2000/svg">
<path fill-rule="evenodd" clip-rule="evenodd" d="M13.7792 2.8C13.4135 2.51551 12.9634 2.36105 12.5 2.36105C12.0367 2.36105 11.5866 2.51551 11.2209 2.8L2.48753 9.59167C1.70419 10.2031 2.13544 11.4583 3.12815 11.4583H4.16669V19.7917C4.16669 20.3442 4.38619 20.8741 4.77689 21.2648C5.16759 21.6555 5.69749 21.875 6.25003 21.875H11.4584V14.5833C11.4584 14.3071 11.5681 14.0421 11.7635 13.8468C11.9588 13.6514 12.2238 13.5417 12.5 13.5417C12.7763 13.5417 13.0412 13.6514 13.2366 13.8468C13.4319 14.0421 13.5417 14.3071 13.5417 14.5833V21.875H18.75C19.3026 21.875 19.8325 21.6555 20.2232 21.2648C20.6139 20.8741 20.8334 20.3442 20.8334 19.7917V11.4583H21.8719C22.8636 11.4583 23.2969 10.2031 22.5125 9.59271L13.7792 2.8Z" fill="#393939"/>
</svg>
