<svg width="23" height="25" viewBox="0 0 23 25" fill="none" xmlns="http://www.w3.org/2000/svg">
<path fill-rule="evenodd" clip-rule="evenodd" d="M16.25 15C17.8606 15.0001 19.409 15.6219 20.5722 16.7358C21.7355 17.8497 22.4239 19.3697 22.4938 20.9788L22.5 21.25V23.75C22.4996 24.0686 22.3777 24.375 22.1589 24.6067C21.9402 24.8384 21.6413 24.9778 21.3233 24.9965C21.0052 25.0151 20.692 24.9117 20.4477 24.7072C20.2034 24.5027 20.0464 24.2126 20.0088 23.8963L20 23.75V21.25C20.0001 20.2935 19.6346 19.3731 18.9784 18.6772C18.3222 17.9812 17.4249 17.5624 16.47 17.5062L16.25 17.5H6.25C5.29349 17.4999 4.37311 17.8654 3.67717 18.5216C2.98124 19.1778 2.56237 20.0751 2.50625 21.03L2.5 21.25V23.75C2.49965 24.0686 2.37765 24.375 2.15894 24.6067C1.94023 24.8384 1.64131 24.9778 1.32326 24.9965C1.0052 25.0151 0.692026 24.9117 0.447709 24.7072C0.203393 24.5027 0.0463795 24.2126 0.00874996 23.8963L0 23.75V21.25C9.30531e-05 19.6394 0.621927 18.091 1.73582 16.9278C2.84972 15.7645 4.36969 15.0761 5.97875 15.0063L6.25 15H16.25ZM11.25 0C12.9076 0 14.4973 0.65848 15.6694 1.83058C16.8415 3.00269 17.5 4.5924 17.5 6.25C17.5 7.9076 16.8415 9.49731 15.6694 10.6694C14.4973 11.8415 12.9076 12.5 11.25 12.5C9.5924 12.5 8.00269 11.8415 6.83058 10.6694C5.65848 9.49731 5 7.9076 5 6.25C5 4.5924 5.65848 3.00269 6.83058 1.83058C8.00269 0.65848 9.5924 0 11.25 0ZM11.25 2.5C10.7575 2.5 10.2699 2.597 9.81494 2.78545C9.35997 2.97391 8.94657 3.25013 8.59835 3.59835C8.25013 3.94657 7.97391 4.35997 7.78545 4.81494C7.597 5.26991 7.5 5.75754 7.5 6.25C7.5 6.74246 7.597 7.23009 7.78545 7.68506C7.97391 8.14003 8.25013 8.55343 8.59835 8.90165C8.94657 9.24987 9.35997 9.52609 9.81494 9.71455C10.2699 9.903 10.7575 10 11.25 10C12.2446 10 13.1984 9.60491 13.9017 8.90165C14.6049 8.19839 15 7.24456 15 6.25C15 5.25544 14.6049 4.30161 13.9017 3.59835C13.1984 2.89509 12.2446 2.5 11.25 2.5Z" fill="#393939"/>
</svg>
