<svg width="11" height="10" viewBox="0 0 11 10" fill="none" xmlns="http://www.w3.org/2000/svg">
<path fill-rule="evenodd" clip-rule="evenodd" d="M5.16654 2.08333C3.25113 2.08333 1.83321 3.36375 1.83321 4.79167C1.83321 5.63083 2.30863 6.405 3.10071 6.915C3.40821 7.11333 3.49196 7.49958 3.50571 7.84083C3.81946 7.71167 4.02988 7.3575 4.41071 7.43C4.65321 7.47583 4.90613 7.5 5.16654 7.5C7.08196 7.5 8.49988 6.21958 8.49988 4.79167C8.49988 3.36375 7.08196 2.08333 5.16654 2.08333ZM0.999878 4.79167C0.999878 2.76792 2.93988 1.25 5.16654 1.25C7.39321 1.25 9.33321 2.76792 9.33321 4.79167C9.33321 6.81542 7.39321 8.33333 5.16654 8.33333C4.89446 8.33333 4.62821 8.31125 4.37029 8.26875C4.33154 8.29917 4.26488 8.35417 4.18279 8.41208C3.94571 8.57917 3.60363 8.75 3.08321 8.75C2.9727 8.75 2.86672 8.7061 2.78858 8.62796C2.71044 8.54982 2.66654 8.44384 2.66654 8.33333C2.66654 8.10417 2.72613 7.81917 2.62738 7.60167C1.65696 6.96792 0.999878 5.9575 0.999878 4.79167Z" fill="#7D7D7D"/>
</svg>
