<svg width="11" height="11" viewBox="0 0 11 11" fill="none" xmlns="http://www.w3.org/2000/svg">
<path fill-rule="evenodd" clip-rule="evenodd" d="M9.47124 1.46047L1.66178 4.30609L4.26349 5.82359L6.55758 3.51109C6.67395 3.3939 6.83176 3.3281 6.99628 3.32815C7.16079 3.32821 7.31855 3.39413 7.43484 3.51141C7.55113 3.62868 7.61643 3.78771 7.61637 3.9535C7.61632 4.1193 7.5509 4.27828 7.43453 4.39547L5.13982 6.70797L6.64689 9.32922L9.47124 1.46047ZM9.67156 0.057969C10.4127 -0.212656 11.1309 0.511094 10.8623 1.25797L7.58648 10.3861C7.31732 11.1348 6.30268 11.2261 5.90638 10.5367L3.91122 7.06297L0.464191 5.05234C-0.219881 4.65297 -0.129333 3.63047 0.613657 3.35922L9.67156 0.057969Z" fill="#EEEEEE"/>
</svg>
