<svg width="15" height="15" viewBox="0 0 15 15" fill="none" xmlns="http://www.w3.org/2000/svg">
<g clip-path="url(#clip0_386_2086)">
<path fill-rule="evenodd" clip-rule="evenodd" d="M3.75 2.5C4.09518 2.5 4.375 2.77983 4.375 3.125V7.5C4.375 7.84519 4.65482 8.125 5 8.125H10.3661L8.62056 6.37944C8.3765 6.13536 8.3765 5.73962 8.62056 5.49555C8.86462 5.25148 9.26038 5.25148 9.50444 5.49555L12.3169 8.30806C12.561 8.55212 12.561 8.94788 12.3169 9.19194L9.50444 12.0044C9.26038 12.2485 8.86462 12.2485 8.62056 12.0044C8.3765 11.7604 8.3765 11.3646 8.62056 11.1206L10.3661 9.375H5C3.96447 9.375 3.125 8.53556 3.125 7.5V3.125C3.125 2.77983 3.40483 2.5 3.75 2.5Z" fill="#7D7D7D"/>
</g>
<defs>
<clipPath id="clip0_386_2086">
<rect width="15" height="15" fill="white"/>
</clipPath>
</defs>
</svg>
