<svg width="20" height="20" viewBox="0 0 20 20" fill="none" xmlns="http://www.w3.org/2000/svg">
<g clip-path="url(#clip0_196_497)">
<path d="M13.6 9.20005C14.3645 9.19999 15.1158 9.3991 15.7798 9.77776C16.4439 10.1564 16.9979 10.7016 17.3872 11.3595C17.7764 12.0174 17.9876 12.7654 17.9998 13.5297C18.012 14.2941 17.8249 15.0484 17.4568 15.7184L17.7656 16.7672C17.8065 16.9059 17.8092 17.0529 17.7735 17.1929C17.7378 17.3329 17.6651 17.4607 17.5629 17.5629C17.4607 17.6651 17.3329 17.7378 17.1929 17.7735C17.0529 17.8092 16.9058 17.8065 16.7672 17.7656L15.7192 17.4568C15.1312 17.7797 14.4771 17.9639 13.807 17.9952C13.1368 18.0266 12.4684 17.9043 11.8528 17.6377C11.2372 17.371 10.6907 16.9672 10.2551 16.457C9.8195 15.9468 9.50634 15.3437 9.33957 14.6939C9.17279 14.0441 9.1568 13.3648 9.29284 12.7078C9.42887 12.0509 9.71332 11.4338 10.1244 10.9037C10.5356 10.3735 11.0625 9.94441 11.6648 9.64914C12.2672 9.35388 12.9292 9.20026 13.6 9.20005ZM9.20003 2.80005C10.792 2.80027 12.339 3.32784 13.5994 4.30033C14.8597 5.27281 15.7624 6.63543 16.1664 8.17525C14.9556 7.60134 13.5876 7.44924 12.2803 7.7432C10.973 8.03716 9.80171 8.76025 8.95313 9.79723C8.10455 10.8342 7.6275 12.1254 7.59801 13.465C7.56853 14.8046 7.9883 16.1155 8.79043 17.1888C7.63274 17.1244 6.50799 16.7799 5.51283 16.1848L3.39283 16.8088C3.25378 16.8499 3.10624 16.8526 2.96574 16.8169C2.82525 16.7811 2.69699 16.7081 2.59447 16.6056C2.49196 16.5031 2.41898 16.3748 2.38321 16.2343C2.34744 16.0938 2.35022 15.9463 2.39123 15.8072L3.01523 13.6872C2.36358 12.5943 2.01322 11.3481 1.99985 10.0757C1.98647 8.80331 2.31056 7.55008 2.93909 6.44366C3.56762 5.33724 4.47816 4.41716 5.57796 3.77712C6.67776 3.13708 7.92755 2.79995 9.20003 2.80005Z" fill="#EEEEEE"/>
</g>
<defs>
<clipPath id="clip0_196_497">
<rect width="19.2" height="19.2" fill="white" transform="translate(0.400024 0.400024)"/>
</clipPath>
</defs>
</svg>
