<svg width="9" height="10" viewBox="0 0 9 10" fill="none" xmlns="http://www.w3.org/2000/svg">
<path d="M4.16667 0.833344C6.46792 0.833344 8.33333 2.69876 8.33333 5.00001C8.33333 7.30126 6.46792 9.16668 4.16667 9.16668C1.86542 9.16668 0 7.30126 0 5.00001C0 2.69876 1.86542 0.833344 4.16667 0.833344ZM4.16667 1.66668C3.28261 1.66668 2.43477 2.01787 1.80964 2.64299C1.18452 3.26811 0.833333 4.11596 0.833333 5.00001C0.833333 5.88407 1.18452 6.73191 1.80964 7.35703C2.43477 7.98215 3.28261 8.33334 4.16667 8.33334C5.05072 8.33334 5.89857 7.98215 6.52369 7.35703C7.14881 6.73191 7.5 5.88407 7.5 5.00001C7.5 4.11596 7.14881 3.26811 6.52369 2.64299C5.89857 2.01787 5.05072 1.66668 4.16667 1.66668ZM4.16667 2.50001C4.26872 2.50002 4.36722 2.53749 4.44349 2.60531C4.51975 2.67312 4.56848 2.76657 4.58042 2.86793L4.58333 2.91668V4.82751L5.71125 5.95543C5.78598 6.03041 5.82936 6.13102 5.83259 6.23684C5.83583 6.34265 5.79866 6.44572 5.72865 6.52513C5.65863 6.60453 5.56102 6.6543 5.45564 6.66434C5.35025 6.67438 5.245 6.64393 5.16125 6.57918L5.12208 6.54459L3.87208 5.29459C3.80732 5.22978 3.76573 5.14543 3.75375 5.05459L3.75 5.00001V2.91668C3.75 2.80617 3.7939 2.70019 3.87204 2.62205C3.95018 2.54391 4.05616 2.50001 4.16667 2.50001Z" fill="#7D7D7D"/>
</svg>
