<svg width="20" height="19" viewBox="0 0 20 19" fill="none" xmlns="http://www.w3.org/2000/svg">
<path d="M0.000428745 6.06686C0.000428745 10.3461 3.58629 14.5547 9.24129 18.171C9.46243 18.3013 9.76372 18.4423 9.97457 18.4423C10.1854 18.4423 10.4867 18.3017 10.698 18.171C16.3629 14.5547 19.9491 10.3461 19.9491 6.06729C19.9491 2.51143 17.508 0 14.2534 0C12.3853 0 10.8784 0.884143 9.97457 2.24014C9.07029 0.894429 7.554 0 5.69571 0C2.44114 0 0 2.51143 0 6.06729M1.617 6.06729C1.617 3.39557 3.34457 1.61786 5.67514 1.61786C7.56343 1.61786 8.63829 2.793 9.291 3.79757C9.56229 4.19914 9.73329 4.30971 9.97414 4.30971C10.215 4.30971 10.3659 4.18929 10.6573 3.79757C11.34 2.81314 12.3947 1.61786 14.2731 1.61786C16.6037 1.61786 18.3313 3.39557 18.3313 6.06771C18.3313 9.804 14.3837 13.8321 10.1751 16.6243C10.0744 16.6946 10.0144 16.7451 9.97414 16.7451C9.93386 16.7451 9.86357 16.695 9.76329 16.6243C5.56457 13.8317 1.61743 9.804 1.61743 6.06729"/>
</svg>
