<svg width="20" height="20" viewBox="0 0 20 20" fill="none" xmlns="http://www.w3.org/2000/svg">
<path fill-rule="evenodd" clip-rule="evenodd" d="M15.4111 3.16772C17.1569 4.18522 18.3852 6.25105 18.3311 8.66104C18.2636 11.6694 15.9227 14.3227 11.9319 16.6927C11.3402 17.0444 10.7169 17.5002 9.99941 17.5002C9.29524 17.5002 8.64524 17.036 8.06607 16.6919C4.07691 14.3227 1.73524 11.6685 1.66774 8.66104C1.61357 6.25105 2.84191 4.18605 4.58774 3.16772C6.22107 2.21689 8.27274 3.20429 9.99941 4.60846C11.7261 3.20429 13.7777 2.21605 15.4111 3.16772ZM14.5719 4.60855C13.4102 3.93188 11.9586 3.95605 10.7019 5.22771C10.6099 5.32039 10.5004 5.39393 10.3799 5.44412C10.2593 5.49431 10.1299 7.91676 9.99935 7.91676C9.86875 7.91676 9.7395 5.49431 9.61894 5.44412C9.49837 5.39393 9.38892 5.32039 9.29691 5.22771C8.04024 3.95605 6.58857 3.93188 5.42691 4.60855C4.22357 5.31022 3.29357 6.79855 3.33441 8.62521C3.38107 10.7177 5.03441 12.9535 8.91774 15.2602C9.25774 15.4627 9.61274 15.7219 9.99941 15.8294C10.3861 15.7219 10.7411 15.4627 11.0811 15.2602C14.9644 12.9535 16.6177 10.7185 16.6644 8.62438C16.7061 6.79938 15.7752 5.31022 14.5719 4.60855Z" fill="#eee"/>
</svg>
