<svg width="18" height="18" viewBox="0 0 18 18" fill="none" xmlns="http://www.w3.org/2000/svg">
<path d="M16.0817 11.9167H1.91669V16.0833H16.0817V11.9167ZM17.2875 11.06L17.305 11.1117L17.3242 11.195L17.3325 11.2783V16.7083C17.3325 16.8596 17.2775 17.0057 17.1779 17.1196C17.0783 17.2334 16.9408 17.3073 16.7909 17.3275L16.7075 17.3333H1.29169C1.14066 17.3333 0.994735 17.2786 0.880911 17.1793C0.767088 17.0801 0.693061 16.9429 0.67252 16.7933L0.666687 16.7083V11.2917L0.668354 11.2483L0.676687 11.1767C0.686315 11.1332 0.699412 11.0905 0.715854 11.0492L3.01585 6.03332C3.05924 5.9385 3.12565 5.85604 3.20905 5.79346C3.29245 5.73087 3.39019 5.69014 3.49335 5.67499L3.58335 5.66915L5.70002 5.66832L5.04169 6.80999L4.98585 6.91832H3.98335L2.26502 10.6667H15.725L14.0359 7.04499L14.7542 5.79749C14.8103 5.83971 14.8581 5.89082 14.8975 5.95082L14.9417 6.02999L17.2875 11.06ZM10.1375 0.713321L10.2142 0.750821L14.5375 3.25332C14.8109 3.41165 14.9192 3.74582 14.8034 4.03082L14.7659 4.10749L12.4267 8.16665H13.375C13.5345 8.16503 13.6886 8.22444 13.8057 8.33271C13.9228 8.44099 13.9941 8.58993 14.0049 8.74905C14.0158 8.90817 13.9654 9.06542 13.8641 9.1886C13.7628 9.31179 13.6182 9.39159 13.46 9.41165L13.375 9.41749L11.7067 9.41665V9.41915H8.30752L8.30502 9.41665H4.62502C4.46766 9.41518 4.31664 9.3544 4.20214 9.24644C4.08763 9.13849 4.01807 8.99131 4.00733 8.83431C3.9966 8.67731 4.04549 8.52203 4.14424 8.3995C4.24298 8.27697 4.38432 8.1962 4.54002 8.17332L4.62502 8.16749L6.14419 8.16665L5.99252 8.07915C5.86188 8.00343 5.76307 7.88298 5.71436 7.74005C5.66564 7.59713 5.67032 7.4414 5.72752 7.30165L5.76419 7.22499L9.36169 0.978321C9.52002 0.704155 9.85335 0.594988 10.1375 0.711654M10.1292 2.14499L7.15752 7.30832L8.63919 8.16665H10.9867L13.3742 4.02249L10.1292 2.14499Z" fill="#7D7D7D"/>
</svg>
