<svg width="18" height="16" viewBox="0 0 18 16" fill="none" xmlns="http://www.w3.org/2000/svg">
<path fill-rule="evenodd" clip-rule="evenodd" d="M0.521484 2.5C0.521484 1.83696 0.784203 1.20107 1.25184 0.732233C1.71949 0.263392 2.35375 0 3.01509 0H14.6519C15.3133 0 15.9475 0.263392 16.4152 0.732233C16.8828 1.20107 17.1455 1.83696 17.1455 2.5V10.8333C17.1455 11.4964 16.8828 12.1323 16.4152 12.6011C15.9475 13.0699 15.3133 13.3333 14.6519 13.3333H8.27909L5.5087 15.4167C4.82379 15.9317 3.84629 15.4417 3.84629 14.5833V13.3333H3.01509C2.35375 13.3333 1.71949 13.0699 1.25184 12.6011C0.784203 12.1323 0.521484 11.4964 0.521484 10.8333V2.5ZM3.01509 1.66667C2.79464 1.66667 2.58322 1.75446 2.42734 1.91074C2.27146 2.06702 2.18389 2.27899 2.18389 2.5V10.8333C2.18389 11.0543 2.27146 11.2663 2.42734 11.4226C2.58322 11.5789 2.79464 11.6667 3.01509 11.6667H4.26189C4.59257 11.6667 4.9097 11.7984 5.14352 12.0328C5.37734 12.2672 5.5087 12.5851 5.5087 12.9167V13.3333L7.28165 12C7.56941 11.7836 7.9194 11.6667 8.27909 11.6667H14.6519C14.8724 11.6667 15.0838 11.5789 15.2397 11.4226C15.3955 11.2663 15.4831 11.0543 15.4831 10.8333V2.5C15.4831 2.27899 15.3955 2.06702 15.2397 1.91074C15.0838 1.75446 14.8724 1.66667 14.6519 1.66667H3.01509Z" fill="#7D7D7D"/>
</svg>
