<svg width="18" height="17" viewBox="0 0 18 17" fill="none" xmlns="http://www.w3.org/2000/svg">
<path d="M12.468 10.5417H11.6801L11.4008 10.2829C12.3783 9.19041 12.9668 7.77208 12.9668 6.22917C12.9668 2.78875 10.0642 0 6.48338 0C2.90256 0 0 2.78875 0 6.22917C0 9.66958 2.90256 12.4583 6.48338 12.4583C8.08926 12.4583 9.56547 11.8929 10.7026 10.9537L10.9719 11.2221V11.9792L15.9591 16.7612L17.4453 15.3333L12.468 10.5417ZM6.48338 10.5417C3.99974 10.5417 1.99489 8.61542 1.99489 6.22917C1.99489 3.84292 3.99974 1.91667 6.48338 1.91667C8.96701 1.91667 10.9719 3.84292 10.9719 6.22917C10.9719 8.61542 8.96701 10.5417 6.48338 10.5417Z" fill="#9FA3A7"/>
</svg>
