<svg width="28" height="28" viewBox="0 0 28 28" fill="none" xmlns="http://www.w3.org/2000/svg">
<g clip-path="url(#clip0_196_433)">
<path d="M9.42198 8.47L9.53282 8.56683L19.4331 18.466C19.5629 18.5956 19.6603 18.754 19.7174 18.9283C19.7744 19.1026 19.7896 19.2879 19.7616 19.4692C19.7337 19.6505 19.6634 19.8226 19.5564 19.9716C19.4495 20.1206 19.3089 20.2423 19.1461 20.3268L19.0108 20.3852L6.89498 24.85C4.61765 25.69 2.39982 23.5492 3.09165 21.2753L3.14998 21.105L7.61365 8.98917C7.67266 8.82867 7.76623 8.68311 7.88774 8.56279C8.00924 8.44247 8.15572 8.35033 8.31678 8.29289C8.47784 8.23546 8.64957 8.21413 8.81979 8.23042C8.99001 8.24671 9.15457 8.30022 9.30182 8.38717L9.42198 8.47ZM19.9581 13.538C21.021 13.594 22.4781 13.818 23.7451 14.5787C24.002 14.7309 24.1907 14.9759 24.2724 15.2631C24.354 15.5503 24.3225 15.8579 24.1842 16.1226C24.0459 16.3872 23.8114 16.5888 23.5289 16.6857C23.2465 16.7826 22.9377 16.7676 22.666 16.6437L22.5446 16.5795C21.749 16.1012 20.7317 15.9145 19.8357 15.8678C19.4665 15.8465 19.0963 15.848 18.7273 15.8725L18.3586 15.9087C18.0543 15.9479 17.7467 15.8657 17.5026 15.6798C17.2584 15.4939 17.0974 15.2193 17.0542 14.9155C17.0111 14.6117 17.0894 14.3031 17.2722 14.0566C17.455 13.8102 17.7276 13.6456 18.0308 13.5987C18.6698 13.5161 19.3152 13.4954 19.9581 13.5368M22.3206 10.2865C22.6179 10.2871 22.9037 10.4012 23.1197 10.6054C23.3357 10.8096 23.4656 11.0886 23.4829 11.3854C23.5002 11.6821 23.4035 11.9743 23.2127 12.2022C23.0218 12.4301 22.7512 12.5766 22.456 12.6117L22.3206 12.6198H21.4946C21.1974 12.6192 20.9116 12.5051 20.6956 12.3009C20.4796 12.0967 20.3497 11.8177 20.3324 11.521C20.3151 11.2242 20.4118 10.932 20.6026 10.7041C20.7935 10.4762 21.0641 10.3298 21.3593 10.2947L21.4946 10.2865H22.3206ZM18.6083 9.39167C18.8092 9.59256 18.9299 9.85984 18.9477 10.1434C18.9655 10.4269 18.8793 10.7072 18.7052 10.9317L18.6083 11.0413L17.3705 12.2792C17.1605 12.4884 16.8788 12.6099 16.5825 12.6189C16.2863 12.628 15.9977 12.5239 15.7753 12.3279C15.553 12.1318 15.4136 11.8585 15.3855 11.5634C15.3574 11.2684 15.4427 10.9737 15.624 10.7392L15.7208 10.6295L16.9575 9.39283C17.0658 9.28436 17.1945 9.19831 17.3361 9.1396C17.4778 9.08088 17.6296 9.05066 17.7829 9.05066C17.9362 9.05066 18.088 9.08088 18.2297 9.1396C18.3713 9.19831 18.5 9.28319 18.6083 9.39167ZM15.5901 3.24917C16.1128 4.8195 15.8328 6.53917 15.5061 7.74083C15.3098 8.49 15.0402 9.21802 14.7011 9.91433C14.563 10.1913 14.3205 10.402 14.027 10.5001C13.7335 10.5982 13.413 10.5757 13.1361 10.4376C12.8591 10.2994 12.6484 10.0569 12.5503 9.76341C12.4522 9.4699 12.4747 9.14943 12.6128 8.8725C12.8834 8.31314 13.0983 7.72856 13.2545 7.12717C13.5193 6.1565 13.6523 5.103 13.4481 4.23967L13.377 3.98767C13.3261 3.84176 13.3048 3.68721 13.3142 3.53299C13.3235 3.37876 13.3634 3.22793 13.4316 3.08926C13.4997 2.95059 13.5947 2.82683 13.7111 2.72517C13.8274 2.62351 13.9628 2.54598 14.1094 2.49707C14.256 2.44817 14.4108 2.42886 14.5649 2.44028C14.719 2.45169 14.8692 2.4936 15.007 2.56357C15.1448 2.63354 15.2672 2.73017 15.3673 2.84787C15.4675 2.96556 15.5432 3.10197 15.5901 3.24917ZM21.9076 6.0935C22.1264 6.31228 22.2492 6.60897 22.2492 6.91833C22.2492 7.22769 22.1264 7.52438 21.9076 7.74317L21.0828 8.568C20.9752 8.67943 20.8465 8.76831 20.7041 8.82945C20.5618 8.89059 20.4087 8.92278 20.2538 8.92412C20.0989 8.92547 19.9452 8.89595 19.8019 8.83729C19.6585 8.77863 19.5282 8.692 19.4187 8.58246C19.3091 8.47292 19.2225 8.34266 19.1639 8.19928C19.1052 8.0559 19.0757 7.90227 19.077 7.74736C19.0784 7.59245 19.1106 7.43937 19.1717 7.29703C19.2328 7.15469 19.3217 7.02595 19.4331 6.91833L20.258 6.0935C20.4768 5.87478 20.7735 5.75191 21.0828 5.75191C21.3922 5.75191 21.6889 5.87478 21.9076 6.0935Z" fill="black"/>
</g>
<defs>
<clipPath id="clip0_196_433">
<rect width="28" height="28" fill="white"/>
</clipPath>
</defs>
</svg>
