<svg width="28" height="28" viewBox="0 0 28 28" fill="none" xmlns="http://www.w3.org/2000/svg">
<g clip-path="url(#clip0_196_429)">
<path d="M4.66669 4.08333C5.10172 4.08335 5.52114 4.2454 5.84318 4.53788C6.16521 4.83037 6.36676 5.23231 6.40852 5.66533L6.41669 5.83333V20.4167H23.3334C23.7828 20.4169 24.2149 20.59 24.5401 20.9001C24.8654 21.2103 25.0589 21.6337 25.0805 22.0826C25.1021 22.5315 24.9501 22.9715 24.6562 23.3114C24.3622 23.6513 23.9487 23.8651 23.5014 23.9085L23.3334 23.9167H4.66669C4.23166 23.9166 3.81223 23.7546 3.4902 23.4621C3.16817 23.1696 2.96662 22.7677 2.92485 22.3347L2.91669 22.1667V5.83333C2.91669 5.3692 3.10106 4.92408 3.42925 4.59589C3.75744 4.2677 4.20256 4.08333 4.66669 4.08333ZM23.5585 7.37099C25.1289 7.37099 25.9152 9.26916 24.8045 10.3787L18.3074 16.8758C18.134 17.0492 17.9282 17.1867 17.7017 17.2806C17.4752 17.3744 17.2324 17.4227 16.9873 17.4227C16.7421 17.4227 16.4993 17.3744 16.2728 17.2806C16.0463 17.1867 15.8405 17.0492 15.6672 16.8758L12.8625 14.0712L9.97502 16.9587C9.81247 17.1211 9.6195 17.25 9.40714 17.3379C9.19478 17.4258 8.96719 17.471 8.73736 17.471C8.50753 17.4709 8.27995 17.4256 8.06764 17.3376C7.85532 17.2496 7.66242 17.1206 7.49994 16.9581C7.33746 16.7955 7.20859 16.6026 7.12069 16.3902C7.03278 16.1778 6.98757 15.9502 6.98762 15.7204C6.98768 15.4906 7.033 15.263 7.121 15.0507C7.20901 14.8384 7.33797 14.6455 7.50052 14.483L11.543 10.4417C11.8931 10.0919 12.3677 9.89536 12.8625 9.89536C13.3574 9.89536 13.832 10.0919 14.182 10.4417L16.9879 13.2475L19.5324 10.7018C19.1738 10.5309 18.8841 10.2431 18.7108 9.88571C18.5375 9.52832 18.4909 9.12261 18.5788 8.73525C18.6666 8.3479 18.8835 8.00193 19.194 7.75421C19.5045 7.5065 19.89 7.37177 20.2872 7.37216L23.5585 7.37099Z" fill="black"/>
</g>
<defs>
<clipPath id="clip0_196_429">
<rect width="28" height="28" fill="white"/>
</clipPath>
</defs>
</svg>
