<svg width="28" height="28" viewBox="0 0 28 28" fill="none" xmlns="http://www.w3.org/2000/svg">
<g clip-path="url(#clip0_196_444)">
<path d="M17.5 9.33333H20.3058C20.9895 9.33323 21.6648 9.48333 22.284 9.77302C22.9033 10.0627 23.4513 10.4849 23.8893 11.0098C24.3274 11.5346 24.6448 12.1493 24.819 12.8104C24.9933 13.4715 25.0202 14.1627 24.8978 14.8353L23.8362 20.6687C23.6406 21.7435 23.0741 22.7157 22.2354 23.4158C21.3967 24.1159 20.339 24.4996 19.2465 24.5H9.33333V10.5L11.4578 3.74733C11.8032 2.94233 12.6945 2.212 13.8192 2.429C15.603 2.77083 17.5 4.16033 17.5 6.41667V9.33333ZM7 10.5C6.07174 10.5 5.1815 10.8687 4.52513 11.5251C3.86875 12.1815 3.5 13.0717 3.5 14V21C3.5 21.9283 3.86875 22.8185 4.52513 23.4749C5.1815 24.1313 6.07174 24.5 7 24.5V10.5Z" fill="black"/>
</g>
<defs>
<clipPath id="clip0_196_444">
<rect width="28" height="28" fill="white"/>
</clipPath>
</defs>
</svg>
