<svg width="28" height="28" viewBox="0 0 28 28" fill="none" xmlns="http://www.w3.org/2000/svg">
<g clip-path="url(#clip0_196_437)">
<path d="M19.25 12.8333C20.3648 12.8333 21.4604 13.1236 22.4289 13.6758C23.3973 14.228 24.2052 15.023 24.7729 15.9825C25.3406 16.942 25.6485 18.0328 25.6663 19.1474C25.6841 20.2621 25.4112 21.3622 24.8745 22.3393L25.3248 23.8688C25.3843 24.071 25.3883 24.2854 25.3363 24.4896C25.2842 24.6938 25.1782 24.8802 25.0292 25.0292C24.8802 25.1782 24.6938 25.2843 24.4896 25.3363C24.2854 25.3883 24.0709 25.3844 23.8688 25.3248L22.3405 24.8745C21.4829 25.3454 20.529 25.614 19.5517 25.6597C18.5745 25.7054 17.5997 25.527 16.7019 25.1382C15.8042 24.7494 15.0072 24.1604 14.3719 23.4164C13.7367 22.6723 13.28 21.7928 13.0368 20.8452C12.7936 19.8976 12.7703 18.9069 12.9686 17.9489C13.167 16.9908 13.5819 16.0909 14.1814 15.3178C14.7809 14.5446 15.5493 13.9189 16.4278 13.4883C17.3063 13.0577 18.2716 12.8336 19.25 12.8333ZM12.8333 3.5C15.1549 3.50032 17.411 4.26969 19.249 5.6879C21.087 7.10611 22.4035 9.09326 22.9926 11.3388C21.2269 10.5019 19.2318 10.2801 17.3253 10.7088C15.4189 11.1374 13.7108 12.192 12.4732 13.7042C11.2357 15.2165 10.54 17.0995 10.497 19.0531C10.454 21.0066 11.0662 22.9184 12.236 24.4837C10.5477 24.3897 8.90742 23.8873 7.45614 23.0195L4.36447 23.9295C4.16169 23.9893 3.94652 23.9934 3.74163 23.9412C3.53674 23.889 3.3497 23.7826 3.2002 23.6331C3.0507 23.4836 2.94427 23.2966 2.89211 23.0917C2.83995 22.8868 2.84399 22.6716 2.90381 22.4688L3.81381 19.3772C2.86348 17.7833 2.35254 15.966 2.33304 14.1104C2.31353 12.2548 2.78615 10.4271 3.70277 8.8136C4.61938 7.20008 5.94724 5.85829 7.55112 4.9249C9.155 3.99151 10.9776 3.49985 12.8333 3.5Z" fill="black"/>
</g>
<defs>
<clipPath id="clip0_196_437">
<rect width="28" height="28" fill="white"/>
</clipPath>
</defs>
</svg>
