<svg width="24" height="24" viewBox="0 0 24 24" fill="none" xmlns="http://www.w3.org/2000/svg">
<path fill-rule="evenodd" clip-rule="evenodd" d="M3.98976 12.001C3.99275 11.985 4.00671 11.897 4.08451 11.724C4.17029 11.533 4.30894 11.293 4.50743 11.016C4.90441 10.463 5.49789 9.824 6.24797 9.218C7.7571 7.996 9.78689 7 11.9693 7C14.1517 7 16.1815 7.996 17.6906 9.216C18.4407 9.822 19.0342 10.461 19.4312 11.014C19.6307 11.291 19.7683 11.531 19.8541 11.722C19.9319 11.895 19.9458 11.983 19.9488 11.999V12C19.9458 12.016 19.9319 12.104 19.8541 12.277C19.7363 12.5262 19.5947 12.7633 19.4312 12.985C19.0342 13.538 18.4407 14.177 17.6906 14.783C16.1825 16.004 14.1527 17 11.9693 17C9.78689 17 7.7571 16.004 6.24797 14.784C5.49789 14.178 4.90441 13.539 4.50743 12.986C4.34376 12.7644 4.20211 12.5273 4.08451 12.278C4.04092 12.1902 4.00906 12.0971 3.98976 12.001ZM11.9693 5C9.19342 5 6.73472 6.254 4.99618 7.659C4.12142 8.365 3.40027 9.133 2.88858 9.846C2.64628 10.176 2.43745 10.5294 2.26518 10.901C2.11756 11.23 1.99487 11.611 1.99487 12C1.99487 12.388 2.11756 12.771 2.26418 13.099C2.41879 13.441 2.63324 13.799 2.88858 14.154C3.40027 14.867 4.12142 15.634 4.99618 16.341C6.73472 17.746 9.19342 19 11.9693 19C14.7452 19 17.2039 17.746 18.9424 16.341C19.8172 15.635 20.5383 14.867 21.05 14.154C21.3064 13.798 21.5198 13.441 21.6734 13.099C21.821 12.771 21.9437 12.389 21.9437 12C21.9437 11.612 21.821 11.229 21.6744 10.901C21.5016 10.5295 21.2924 10.1761 21.05 9.846C20.5383 9.133 19.8172 8.366 18.9424 7.659C17.2039 6.254 14.7452 5 11.9693 5ZM10.9719 12C10.9719 11.7348 11.0769 11.4804 11.264 11.2929C11.4511 11.1054 11.7048 11 11.9693 11C12.2338 11 12.4875 11.1054 12.6746 11.2929C12.8617 11.4804 12.9667 11.7348 12.9667 12C12.9667 12.2652 12.8617 12.5196 12.6746 12.7071C12.4875 12.8946 12.2338 13 11.9693 13C11.7048 13 11.4511 12.8946 11.264 12.7071C11.0769 12.5196 10.9719 12.2652 10.9719 12ZM11.9693 9C11.1757 9 10.4146 9.31607 9.8534 9.87868C9.29223 10.4413 8.97697 11.2044 8.97697 12C8.97697 12.7956 9.29223 13.5587 9.8534 14.1213C10.4146 14.6839 11.1757 15 11.9693 15C12.7629 15 13.524 14.6839 14.0852 14.1213C14.6464 13.5587 14.9616 12.7956 14.9616 12C14.9616 11.2044 14.6464 10.4413 14.0852 9.87868C13.524 9.31607 12.7629 9 11.9693 9Z" fill="#7D7D7D"/>
</svg>
