<svg width="13" height="13" viewBox="0 0 13 13" fill="none" xmlns="http://www.w3.org/2000/svg">
<path d="M6.5 0.40625C5.29477 0.40625 4.11661 0.763642 3.1145 1.43323C2.11238 2.10282 1.33133 3.05454 0.870112 4.16802C0.40889 5.28151 0.288214 6.50676 0.523342 7.68883C0.758471 8.8709 1.33884 9.95671 2.19107 10.8089C3.0433 11.6612 4.1291 12.2415 5.31117 12.4767C6.49324 12.7118 7.71849 12.5911 8.83198 12.1299C9.94547 11.6687 10.8972 10.8876 11.5668 9.88551C12.2364 8.88339 12.5938 7.70523 12.5938 6.5C12.592 4.88436 11.9495 3.33538 10.8071 2.19295C9.66462 1.05052 8.11564 0.407956 6.5 0.40625ZM6.5 11.6562C5.48019 11.6562 4.48328 11.3538 3.63534 10.7873C2.7874 10.2207 2.12651 9.41539 1.73625 8.47321C1.34598 7.53103 1.24387 6.49428 1.44283 5.49407C1.64178 4.49385 2.13287 3.5751 2.85398 2.85398C3.5751 2.13287 4.49385 1.64178 5.49407 1.44283C6.49428 1.24387 7.53103 1.34598 8.47321 1.73625C9.4154 2.12651 10.2207 2.7874 10.7873 3.63534C11.3538 4.48328 11.6563 5.48019 11.6563 6.5C11.6547 7.86705 11.111 9.17766 10.1443 10.1443C9.17766 11.111 7.86705 11.6547 6.5 11.6562ZM9.78125 6.5C9.78125 7.14897 9.58881 7.78337 9.22826 8.32297C8.86771 8.86256 8.35525 9.28313 7.75568 9.53148C7.15611 9.77983 6.49636 9.84481 5.85986 9.7182C5.22336 9.59159 4.6387 9.27908 4.17981 8.82019C3.72092 8.3613 3.40841 7.77664 3.2818 7.14014C3.15519 6.50364 3.22017 5.84389 3.46852 5.24432C3.71687 4.64475 4.13744 4.13229 4.67704 3.77174C5.21664 3.41119 5.85103 3.21875 6.5 3.21875C7.36996 3.21968 8.20402 3.56568 8.81917 4.18083C9.43432 4.79599 9.78032 5.63004 9.78125 6.5Z" fill="#FD3747"/>
</svg>
